<svg  viewBox="0 0 875 127" fill="#D0C834" xmlns="http://www.w3.org/2000/svg">
<path d="M0.455836 103.161L5.58839 35.9252C5.6313 35.6702 5.67481 35.4071 5.71835 35.1441C5.90357 35.1753 6.08886 35.2065 6.2657 35.2451C7.27724 34.4872 8.28873 33.7293 9.30026 32.9713L10.5159 33.0216C10.2359 30.9552 11.582 31.2422 12.8017 31.3413C13.4858 32.7217 14.6456 33.1956 15.9314 33.4535L15.9369 33.3813C16.8268 32.4762 17.9494 32.107 19.1321 31.8719C19.2977 31.853 19.4614 31.8582 19.6245 31.8715C20.3783 31.5208 21.1186 31.0397 21.9793 31.3358C22.0457 30.6707 22.1121 30.0056 22.1785 29.3406C22.5694 29.34 22.9596 29.3475 23.3428 29.3463C23.9119 28.6494 24.4739 27.9438 25.0437 27.2388C25.3912 26.7824 25.753 26.3433 26.1911 26.0315C26.6292 25.7198 27.1286 25.5261 27.7526 25.5444C27.7374 25.3332 27.7223 25.1219 27.7065 24.9187C27.92 24.8876 28.1251 24.8639 28.3301 24.8401C28.7535 24.1071 29.1769 23.3741 29.6002 22.6411C29.3402 22.3615 29.08 22.0819 28.82 21.8022C31.3558 21.2489 32.5441 17.7669 35.6496 18.4555C37.5509 17.5113 39.5688 16.7787 41.1472 15.251C41.3619 15.2038 41.5766 15.1566 41.7913 15.1094C41.9562 14.7916 42.1289 14.4744 42.2939 14.1566C42.0671 13.3385 42.3196 12.5916 42.6336 11.8578C44.1722 11.1588 44.1017 8.60047 46.208 8.55351C46.2544 8.35533 46.3092 8.14975 46.3556 7.95157C47.0059 7.93171 47.6869 7.8174 48.0919 8.55309C48.8719 8.57607 49.1068 7.95703 49.393 7.38252C51.4806 5.53265 52.58 2.90775 54.2325 0.715573C54.4178 0.746778 54.6049 0.753878 54.7938 0.736914C55.5163 0.795616 56.2458 0.862974 56.8676 1.11544C57.4964 1.37656 58.0252 1.82343 58.3601 2.65843C60.2067 2.84077 59.2077 4.56102 59.7583 5.43778L61.3806 5.69079C62.2164 6.82498 61.4313 8.91795 63.4309 9.34699C64.1929 9.70779 65.1505 9.04242 66.0648 10.0699C64.4207 10.3079 62.5419 10.4461 63.8607 12.8312C64.0245 12.8364 64.1941 12.8664 64.3548 12.9117C65.6884 12.2365 66.2036 13.4739 66.8622 14.1656C67.4414 14.77 67.7211 15.7136 68.7738 15.6457C68.8983 15.8577 69.0234 16.0618 69.1402 16.2732C68.9775 16.6639 68.8142 17.0626 68.6592 17.4539C68.9508 18.14 69.3478 18.6731 70.186 18.5473C70.4477 18.2939 70.6847 18.1597 70.8867 18.1761C71.112 18.1944 71.307 18.4041 71.4454 18.8435C72.5644 19.4433 73.7504 19.984 74.0112 21.4834C74.2235 23.0032 74.909 24.2625 75.9446 25.3402C76.0198 25.6856 76.0957 26.023 76.171 26.3684C77.2204 27.0595 78.2693 27.7586 79.3181 28.4577C81.4503 28.9945 83.1599 30.7651 85.4953 30.6883L85.6506 30.7009C86.3032 30.7539 86.5222 31.2645 86.6639 31.8657C87.6765 32.1176 88.1958 32.7899 88.247 33.8603C88.7448 33.8927 89.2504 33.9257 89.7482 33.958L89.756 33.9587C91.0969 33.4941 91.3498 34.379 91.4566 35.4378C90.0962 37.0802 92.5573 37.8133 92.455 39.154C92.4458 39.2744 92.4204 39.4016 92.3634 39.5343C94.6266 40.9137 93.9542 43.4763 94.5971 45.4995C94.8176 46.196 94.2311 47.2227 94.9941 47.6725C95.9446 48.2263 96.2127 47.0687 96.6895 46.5582C97.0895 46.1302 97.4922 45.8721 97.935 45.9081C98.1681 45.927 98.4106 46.0275 98.6768 46.2269C99.0787 46.0818 99.4735 45.9281 99.8755 45.783C100.053 45.7086 100.231 45.6342 100.408 45.5598C101.232 45.3117 101.767 44.0384 102.806 44.5671C103.224 44.2133 103.649 43.8682 104.074 43.523C104.316 43.2116 104.566 42.9087 104.808 42.6053C105.924 42.8413 107.039 43.0773 108.146 43.3207C109.959 44.5586 111.594 44.538 112.689 42.3893C113.286 41.2181 114.242 41.4976 115.148 41.4097C115.716 40.4138 116.564 40.2646 117.55 40.5628L118.061 41.2345C118.234 41.2243 118.405 41.2381 118.582 41.2767C119.723 41.9915 121.173 42.1416 121.565 43.9748C121.865 45.3644 123.173 44.9294 124.182 44.6075C124.608 44.0444 125.034 43.4812 125.453 42.9174C125.621 42.8664 125.779 42.839 125.952 42.8288C126.865 41.1016 128.553 43.2582 129.575 42.0649C130.609 42.7467 131.672 43.3662 132.783 43.8684C133.894 44.3706 135.052 44.7556 136.271 44.9677L136.279 44.9684C136.863 44.4827 137.362 43.8931 137.91 43.3641C138.459 42.8351 139.064 42.3754 139.847 42.1643C140.399 41.6922 141.04 41.8897 141.664 41.9081C142.463 41.7872 143.262 41.6663 144.06 41.5535C144.383 41.3131 144.705 41.0809 145.021 40.8399C145.449 39.3318 146.318 38.1827 147.815 37.8196C149.018 37.5296 148.956 38.8494 149.423 39.4932C149.469 39.61 149.508 39.7181 149.546 39.8343C149.748 39.9477 149.95 40.0611 150.16 40.1831C151.559 40.7976 152.528 42.1365 154.024 42.6054C154.175 42.7872 154.309 42.9678 154.445 43.1404C154.507 43.1454 154.57 43.1425 154.632 43.1475C155.681 43.2328 156.638 43.6902 157.555 44.3786L157.637 44.4257C159.304 44.5126 160.072 45.714 160.552 47.1101C160.883 48.0903 161.113 48.9732 162.384 48.713C163.341 47.9426 164.045 48.4521 164.699 49.2C164.64 49.3648 164.674 49.5292 164.765 49.6738C165.02 50.0177 165.267 50.3689 165.455 50.7639C165.531 50.9963 165.584 51.2348 165.621 51.464C165.877 51.5898 166.137 51.6595 166.394 51.6803C167.722 51.7882 169.033 50.6911 170.365 50.6539C170.616 50.1331 170.874 49.6128 171.132 49.1007C173.001 49.204 174.869 49.3073 176.737 49.4106C177.575 48.364 178.232 47.028 179.293 46.3467C180.97 45.2632 181.043 43.7909 180.968 42.1207C181.828 41.6979 182.856 41.5472 183.34 40.5363C184.052 40.2226 184.783 39.9589 185.417 39.5419C186.05 39.1329 186.584 38.5865 186.87 37.7131C187.518 37.4104 188.175 37.1002 188.832 36.7901C189.257 36.34 189.651 36.5012 189.963 36.9224C190.26 37.3343 190.032 37.857 190.123 38.3086C190.44 39.7884 191.017 40.7319 192.534 39.3931C192.757 39.2335 192.98 39.0819 193.211 38.923C193.643 38.1826 193.763 37.417 193.403 36.6042C193.57 36.5692 193.736 36.5423 193.901 36.5315C194.851 34.6377 195.883 34.4387 196.902 36.4441C197.466 37.5562 198.47 38.1225 199.361 38.8411C199.38 39.0042 199.407 39.1679 199.441 39.3322C199.262 39.5277 199.197 39.7648 199.17 40.013C199.386 40.4587 199.585 40.9272 199.766 41.4186C200.36 42.4442 201.09 43.4325 200.645 44.7535C200.565 45.1912 200.492 45.6296 200.45 46.0786C200.412 46.2774 200.396 46.4781 200.389 46.6794C200.407 46.9475 200.427 47.1995 200.633 47.2647C201.56 47.7197 202.479 48.174 203.406 48.629C204.546 47.93 205.351 48.7466 206.226 49.2701C206.541 48.6252 206.902 48.4041 207.29 48.4357C207.679 48.4672 208.109 48.7607 208.537 49.1024C208.71 49.2861 208.868 49.4767 209.016 49.6826C209.031 49.6999 209.044 49.7252 209.05 49.7499C211.432 49.9919 213.751 50.6327 216.151 50.7308C216.627 50.7533 216.996 51.1307 217.032 51.6829C217.078 51.7027 217.123 51.7226 217.161 51.7418C218.336 50.9891 219.789 51.713 220.987 51.0833C221.388 50.9462 221.785 50.7685 222.18 50.6067C224.439 50.9195 224.74 51.3802 223.593 53.2984C223.593 53.2984 223.614 53.3243 223.621 53.341C225.003 52.5325 226.651 52.7633 228.094 52.1939C228.647 52.0046 229.176 51.7406 229.78 51.8058C230.535 52.061 231.344 52.2156 231.935 52.7645L231.951 52.7658C232.193 52.6643 232.44 52.6035 232.699 52.5842C235.197 52.6337 237.79 53.1755 239.88 51.0916C240.06 50.88 240.253 50.7019 240.477 50.5343C240.682 50.4136 240.9 50.3182 241.125 50.2396C241.225 49.8599 241.606 49.5759 241.949 49.3776C242.996 48.768 243.419 47.736 243.955 46.7617C244.882 45.8838 246.018 45.7419 247.199 45.7409C247.264 45.8027 247.339 45.8411 247.413 45.8956C247.584 44.9967 248.158 44.8494 248.956 45.1405C248.925 43.2962 250.302 42.358 251.359 41.2079C252.004 40.7514 252.758 40.2876 253.494 40.5897C256.959 41.986 260.448 40.9286 263.917 40.75C265.487 40.6675 266.637 40.9629 266.733 42.7801C266.797 44.0939 267.687 43.8997 268.485 44.1988C270.217 44.8485 272.426 44.3817 273.667 46.2596C276.064 44.758 277.791 44.858 279.371 46.5858C279.797 47.6705 280.055 48.7981 280.264 49.946C280.489 52.5331 281.599 54.1662 284.36 54.0432C289.369 52.8346 293.787 54.9706 298.269 56.6757C298.717 56.8494 298.944 57.3526 299.136 57.8124C299.148 57.8619 299.152 57.9107 299.164 57.9601C299.422 58.0538 299.662 58.1864 299.884 58.3579C299.957 58.4284 300.021 58.5063 300.085 58.5843C302.507 57.5855 304.676 58.1414 306.249 60.1675C306.438 58.3168 307.679 58.1349 309.283 58.5157C310.277 59.1135 311.408 56.8951 312.367 58.0554C312.583 58.0972 312.788 58.1704 312.984 58.2752C313.465 58.6212 313.875 59.0907 314.482 59.2289C314.589 58.3409 314.618 57.2367 315.843 59.3233C316.051 59.6714 316.407 59.9185 316.785 59.6745C318.127 58.79 319.223 59.3799 320.321 59.9457C320.653 59.9 320.99 59.887 321.331 59.9228C321.578 59.8621 321.831 59.8341 322.089 59.8308C323.223 60.1249 324.419 59.6243 325.565 59.7659C326.235 59.6911 326.886 59.5582 327.497 59.2282C327.452 59.1114 327.406 58.9946 327.399 58.8729C327.39 58.5813 327.442 58.3189 327.571 58.0628C327.729 57.8333 327.938 57.6565 328.175 57.5222C328.199 57.5161 328.222 57.518 328.253 57.5205C328.359 55.9297 329.492 56.0379 330.828 56.4614C331.563 56.8685 332.285 57.3392 333.163 56.7966C335.271 55.4977 337.342 56.5223 339.436 56.8459C339.516 56.6181 339.67 56.4448 339.897 56.334C341.23 56.2888 342.404 56.57 343.084 57.9096C343.321 58.2763 343.44 58.6736 343.351 59.1107C343.342 59.1262 343.334 59.1335 343.318 59.1403C343.69 59.4936 343.866 59.9442 343.905 60.4563C343.94 61.3315 343.859 62.1893 343.632 63.019C343.834 63.8433 344.504 63.9865 345.991 63.5499C348.045 62.9575 350.545 61.957 352.086 64.8125C352.085 64.8206 352.069 64.8193 352.06 64.8347C354.942 66.7168 354.967 63.3179 356.314 62.3691C356.433 62.2335 356.539 62.1855 356.646 62.2104C356.649 62.1783 356.667 62.1474 356.677 62.116C357.544 60.587 358.682 59.3951 360.157 58.4082C362.448 56.8657 364.562 57.0213 366.751 58.4593C367.123 58.7076 367.543 58.8386 367.961 58.9857C368.357 58.412 368.67 57.6863 369.427 57.8043C369.476 57.776 369.51 57.7464 369.567 57.7187C370.453 57.6776 370.947 58.0651 370.992 58.9169C371.964 58.1639 373.308 58.879 374.305 58.2168C376.088 57.6912 378.053 57.762 379.554 56.3249C379.89 56.013 380.411 56.0472 380.824 56.3716C380.476 55.1962 380.779 54.2999 381.856 53.7089C382.379 53.6221 382.896 53.5995 383.382 53.6955C384.012 53.4236 384.558 53.0318 384.758 52.1514C385.435 51.3743 386.047 50.5274 386.795 49.845C387.441 49.2674 388.256 48.3158 388.928 49.8567C389.918 49.4768 390.482 50.4919 391.212 50.9632C392.244 51.3622 393.28 51.317 394.249 50.8061C397.165 49.2659 399.732 50.0479 402.148 51.989C403.348 53.064 405.345 52.7092 406.311 54.1852C406.079 52.7204 407.509 52.5135 408.193 51.7451C408.424 51.5942 408.681 51.494 408.958 51.4518C409.425 51.4817 409.872 51.4615 410.306 51.4079C410.421 51.3364 410.536 51.265 410.651 51.1936C410.63 51.0545 410.618 50.9082 410.605 50.7698C411.183 47.6018 412.896 48.9123 414.442 49.5548C414.392 49.4942 414.341 49.4496 414.298 49.3897C414.096 48.9693 414.09 48.5326 414.125 48.083C414.148 47.778 414.24 47.4947 414.377 47.2312C415.37 45.2843 416.639 43.8202 419.059 44.2673C420.162 44.47 420.966 43.4609 421.975 43.236C421.982 43.1557 422.01 43.0934 422.023 43.0218C422.125 42.7069 422.279 42.4367 422.493 42.1956C424.187 41.0893 425.919 40.2122 428.044 40.4333C430.557 40.694 431.44 41.727 431.005 44.2443C431.107 44.4465 431.2 44.664 431.284 44.889C431.291 44.9057 431.297 44.9224 431.296 44.9384C431.966 44.9766 432.682 45.1157 432.932 44.0939C434.381 42.8303 435.796 41.4993 437.895 41.7506C437.946 41.6982 437.997 41.6458 438.041 41.5767C438.075 41.5471 438.109 41.5095 438.142 41.4799C438.099 41.226 438.127 40.9617 438.218 40.6944C438.729 39.8393 439.407 39.2482 440.439 39.2512C441.67 40.0217 443.314 40.2926 443.976 41.76L443.999 41.7619C444.444 41.7738 444.878 41.8252 445.305 41.9569L445.69 42.4486C446.662 41.9055 447.595 42.4741 447.91 43.2671C448.481 44.6948 449.567 45.0093 450.668 45.438C450.467 44.8886 450.614 44.4077 451.036 43.9897C451.127 43.9243 451.225 43.8677 451.324 43.811C451.316 43.6085 451.409 43.4141 451.61 43.2285C453.025 43.2384 454.463 43.5411 455.361 42.0227C455.41 41.7843 455.527 41.5918 455.681 41.4185C455.831 41.1884 456.031 41.027 456.281 40.9261C456.653 40.6655 457.047 40.4148 457.262 40.0607C457.413 39.8145 457.586 39.6023 457.774 39.3914C460.235 38.0728 461.407 35.5264 463.007 33.4027C463.408 32.8617 463.675 32.2372 464.316 31.9258C464.588 31.8509 464.863 31.8328 465.141 31.8716C465.278 31.9151 465.414 31.9827 465.533 32.057C465.12 30.9168 465.703 30.3502 466.889 30.1639C468.4 29.9312 469.902 29.9159 471.347 30.5502C471.409 30.7653 471.465 30.9557 471.505 31.1447C471.522 31.1219 471.532 31.0984 471.541 31.0749C473.356 29.736 475.569 29.1001 477.133 27.2561C478.043 26.191 479.177 25.9762 480.767 27.1636C482.053 28.1325 484.163 27.9323 485.966 28.1757C486.465 27.2711 487.139 27.1482 487.972 27.7005L487.976 27.6604C488.504 27.1944 489.023 27.2528 489.523 27.665C489.523 27.665 489.547 27.6508 489.556 27.6434C489.542 27.6181 489.521 27.5921 489.507 27.5668C489.685 25.9495 490.418 25.5647 491.801 26.388C492.287 26.6779 492.716 27.0035 493.085 27.3969C493.424 26.9399 493.771 26.4995 494.405 26.4783C496.213 26.8595 496.785 28.1823 496.983 29.7817C497.5 29.8641 497.916 30.1483 498.313 30.4794C498.607 30.6245 498.903 30.7454 499.215 30.8516C500.282 31.6249 502.385 31.408 501.824 33.7454C501.685 33.928 501.511 34.0593 501.324 34.1571C502.746 34.7735 503.832 35.6049 503.484 37.2972C504.337 36.5668 505.092 36.9109 505.908 38.003C507.036 39.5083 508.018 41.1796 509.712 42.1331C510.542 42.4186 511.098 41.8983 511.667 41.4033C511.883 41.2351 512.126 41.1255 512.382 41.0574C514.475 41.0741 515.701 42.8297 517.069 43.9587C518.526 45.1514 519.581 45.6652 521.3 44.8517C522.112 44.4653 523.092 44.1168 524.011 44.6761C523.463 43.1453 524.916 42.8514 525.622 42.101C525.833 42.005 526.049 41.9336 526.264 41.8865C526.191 41 526.955 40.5129 527.767 40.1184C528.847 39.5922 529.981 39.1754 530.924 38.3878C531.193 38.24 531.473 38.1657 531.771 38.1496C534.093 38.4513 535.896 36.9579 537.901 36.1838C539.472 35.5764 540.826 35.5571 542.121 36.7125C542.245 36.8356 542.334 36.9883 542.401 37.1391C544.444 35.6653 546.662 35.3931 548.615 36.3353C548.633 36.2965 548.651 36.2656 548.677 36.2273C548.875 35.888 549.146 35.6192 549.467 35.411C549.358 34.9902 549.401 34.5332 549.46 34.0695C550.549 28.7134 554.515 26.7335 559.011 25.3782C559.453 25.4222 559.855 25.3822 560.23 25.2834C561.056 24.7042 561.858 24.0343 562.786 23.7462C563.235 23.3949 563.691 23.0524 564.188 22.7938C564.649 22.597 565.117 22.3927 565.579 22.1799C566.522 22.0141 567.094 21.1801 567.907 20.7696C568.051 20.7328 568.192 20.72 568.333 20.7234C568.113 20.0109 568.247 19.3836 569.125 19.2529C570.082 19.1045 570.136 19.9409 570.028 20.6349C569.841 21.8556 570.53 22.6628 571.169 23.5064C571.421 24.5043 571.922 25.5224 571.225 26.4594C572.087 26.7314 572.581 27.5389 573.277 28.0478C573.433 28.1574 573.572 28.2818 573.711 28.4062C574.298 28.8013 574.689 29.3097 574.925 29.9104C575.181 30.3432 575.403 30.8056 575.61 31.2747C575.715 31.5417 575.757 31.8117 575.767 32.0872C575.888 32.1374 576.001 32.1951 576.123 32.2373C576.38 32.3551 576.602 32.5105 576.799 32.7041C576.891 32.8247 576.967 32.9521 577.043 33.0875C579.102 32.9398 580.537 33.7996 581.02 36.2864C581.249 37.4844 581.998 38.1188 583.242 38.0987C586.363 38.0696 589.484 38.0484 592.264 36.2387C592.42 36.0413 592.584 35.8366 592.748 35.6399C592.647 33.9918 594.137 33.8301 595.027 33.4339C595.714 33.1343 596.071 34.3023 596.36 35.0205C596.497 35.3709 596.883 35.9515 596.898 35.9528C599.122 34.6714 601.607 36.6262 603.808 35.3509C604.009 35.1653 604.204 34.9712 604.398 34.785C604.648 33.5533 606.038 32.8584 605.888 31.4407C606.444 31.2273 607.007 31.0226 607.562 30.8173C608.092 30.5291 608.468 30.4224 608.732 30.4438C609.679 30.5208 609.294 32.1939 609.794 32.8161C611.114 32.9234 612.433 33.0548 613.753 33.1782L613.754 33.1621C613.785 32.5507 613.816 31.9393 613.847 31.3279C614.1 30.775 614.346 30.2214 614.591 29.6678C615.999 28.3281 617.544 28.3648 619.055 29.352C619.667 29.7409 620.252 30.0551 620.925 30.1582C620.925 30.1502 620.926 30.1341 620.943 30.1273C621.144 29.9498 621.357 29.8137 621.593 29.6955C621.751 29.676 621.916 29.6651 622.08 29.6704C622.291 28.9444 622.666 28.3448 623.291 27.9352C623.56 27.3835 623.821 26.8231 624.09 26.2714C625.877 22.725 627.577 22.4753 630.058 25.3022C630.799 26.146 631.749 26.8048 632.607 27.545L632.615 27.5456C632.907 26.5919 633.198 25.6462 633.497 24.6931C633.683 24.5143 633.869 24.3275 634.055 24.1407C635.245 24.2292 635.508 25.3895 636.183 26.0744C637.709 26.5539 639.341 26.6865 640.762 27.521C643.513 26.1046 643.956 28.2813 644.533 30.2507C647.633 28.1358 649.889 30.1285 652.066 32.0179C653.232 33.0254 654.287 33.8543 655.851 33.0281C656.724 33.9876 657.63 34.5056 658.57 34.5819C659.51 34.6583 660.516 34.2796 661.541 33.4501L661.519 33.4241C661.897 32.6712 662.528 32.3994 663.302 32.3896C664.636 31.9164 665.975 31.4758 667.289 30.9525C668.08 30.6371 668.63 30.8999 668.895 31.6243C669.813 34.1384 671.175 34.1197 672.654 33.4806C673.015 33.2675 673.358 32.9723 673.686 32.5627C673.906 32.2413 674.097 31.8934 674.287 31.5534C674.543 31.1623 674.791 30.7785 675.04 30.3867C676.76 29.4682 678.307 28.3419 679.551 26.8031C679.579 26.7327 679.608 26.6623 679.63 26.5833C679.669 26.4815 679.715 26.3883 679.761 26.2951C679.754 26.1895 679.778 26.0784 679.865 25.9643C679.955 25.802 680.03 25.6385 680.09 25.4657C680.296 25.3369 680.493 25.2156 680.698 25.0868C680.933 24.8717 681.183 24.6659 681.441 24.4687C681.568 24.4386 681.703 24.4173 681.83 24.3872C682.86 24.8263 683.85 24.8503 684.741 24.0421C684.962 23.4947 685.176 23.2535 685.363 23.2687C685.572 23.2857 685.76 23.5918 685.931 24.1146C686.941 24.0916 687.095 22.9975 687.77 22.5595C689.145 21.8473 689.795 22.4493 689.983 23.8702C693.318 24.7389 696.531 24.3215 699.664 23.017C699.667 22.9768 699.639 22.9341 699.635 22.8853C699.884 22.6875 700.142 22.4823 700.392 22.2845C700.63 21.9242 700.869 21.5639 701.107 21.2117C702.326 19.267 703.749 20.2874 705.147 20.9179C705.138 21.0384 705.129 21.1587 705.12 21.2792C705.136 21.2724 705.144 21.273 705.152 21.2656C709.252 20.2901 713.361 19.4043 717.615 19.8953C718.669 20.0213 719.4 20.4765 719.709 21.5517C720.991 23.1907 722.307 24.792 724.559 24.9831C724.718 24.9476 724.869 24.9195 725.027 24.892C725.143 24.0936 725.694 23.6374 726.267 23.1993C726.303 22.8226 726.34 22.4379 726.377 22.0612C729.15 19.8309 732.288 20.7159 735.355 20.8843C736.437 20.9399 736.573 22.0252 737.258 22.4767C737.06 22.8161 736.854 23.1548 736.649 23.4935C736.615 24.339 736.771 25.0705 737.679 25.3624C738.043 25.1901 738.41 24.9937 738.768 25.0227C739.001 25.0417 739.234 25.1577 739.454 25.4502C739.831 27.573 742.66 28.9256 741.267 31.6074C741.447 31.8078 741.619 32.0156 741.79 32.2234C742.762 32.4963 743.343 33.0766 743.314 34.1809C743.642 34.9023 744.17 35.3491 744.951 35.4611C746.211 33.1966 747.767 32.6767 749.748 34.5825C751.796 35.8151 753.572 34.2551 755.474 34.0138C756.019 34.1469 756.563 34.2881 757.116 34.4218C758.19 33.669 759.278 32.9334 760.345 32.1558C761.28 31.4805 762.188 31.2635 763.103 32.1779C763.306 32.1783 763.501 32.186 763.704 32.1944L763.659 32.2636C765.841 31.4391 767.819 30.7113 769.077 33.8992C769.575 35.1514 771.503 34.476 772.748 34.8518C774.721 33.8893 774.359 36.3882 775.423 36.7816C776.079 37.4084 776.655 38.36 777.452 38.3682C777.494 38.0162 777.552 37.6655 777.587 37.3049C777.909 35.9658 778.742 34.9754 779.709 34.0846C780.192 33.5988 780.888 33.3887 781.293 32.7996C781.477 32.5319 781.672 32.3376 781.864 32.1835C782.573 31.086 783.651 31.1898 784.735 32.1503C785.598 32.9232 786.462 33.2841 787.398 33.3037C787.744 33.1783 788.089 32.964 788.445 32.6051C788.681 32.4709 788.938 32.3867 789.207 32.3439C789.3 32.3596 789.376 32.382 789.453 32.4043C789.95 31.9278 790.55 31.6533 791.032 31.9914C792.998 33.3789 794.471 32.6101 795.928 31.6541C796.055 31.2202 796.158 30.7923 796.091 30.3345C796.709 28.8984 797.247 27.375 799.064 27.1268C798.918 26.7918 798.978 26.5059 799.341 26.2688L799.319 26.2428C799.541 25.6873 799.843 25.211 800.415 24.9989C800.505 23.8108 801.494 23.2449 802.439 22.6511C803.155 22.5882 803.844 22.3695 804.544 22.2083C804.523 22.0773 804.595 21.9539 804.775 21.8393C804.804 21.672 804.839 21.5133 804.875 21.3547C805.234 21.3596 805.586 21.3559 805.945 21.3609C807.405 20.4697 807.948 21.6528 808.634 22.5891C810.12 24.6324 811.199 27.1918 814.167 27.4329C814.339 27.4227 814.519 27.4212 814.691 27.4191C814.881 27.2891 815.054 27.2788 815.209 27.3965C815.335 27.2775 815.464 27.1344 815.578 26.966C817.008 26.4602 818.58 28.2923 819.939 26.666C820.007 26.5019 820.067 26.3291 820.119 26.1556C820.324 26.0349 820.528 25.9222 820.732 25.8095C821.877 24.6263 823.009 23.4258 824.368 22.5103C825.066 22.2762 825.817 22.3776 826.18 22.9483C827.801 25.4711 830.674 26.8516 831.832 29.8053C832.657 31.8918 833.985 30.0691 835.087 30.0698C835.092 29.9975 835.121 29.9352 835.134 29.8635C836.274 28.2436 837.836 27.6516 839.737 27.3214C842.391 26.8585 844.925 25.8203 847.629 25.41C849.314 25.1591 849.643 22.5847 851.48 22.1686C852.211 21.711 852.821 21.0981 853.443 20.5186C855.415 19.9841 855.819 21.8667 856.552 22.9038C857.138 23.7269 857.703 24.2091 858.376 24.3041C858.876 24.2074 859.367 24.0291 859.875 23.82C859.923 22.7819 860.484 22.3993 861.452 22.9223C862.181 23.3046 862.837 23.5195 863.605 23.186C863.784 22.9986 863.955 22.8025 864.126 22.6144C865.465 23.7007 866.033 25.8955 868.152 25.8819C868.153 25.8659 868.154 25.8578 868.155 25.8417C868.945 24.3064 869.92 24.5392 870.794 25.6765C871.528 26.6166 871.585 27.8087 871.76 29.0023C872.063 31.0787 872.411 33.2719 874.888 33.9982L870.013 97.8621L869.815 97.9025L868.902 93.6763L866.97 94.7229L864.344 92.6678L864.138 95.3652L861.215 97.2038L859.955 93.434L857.445 93.949C857.445 93.949 855.566 94.1922 854.904 94.7766C854.242 95.3609 851.823 98.6783 851.772 97.3979C851.714 96.1168 851.211 92.5621 851.211 92.5621L848.488 93.8352L846.834 97.2713L844.953 93.548L842.801 93.3732L840.503 95.206C840.503 95.206 837.294 92.7076 837.33 92.234C837.366 91.7603 835.069 93.4881 835.069 93.4881L833.832 95.4636L831.554 97.0315L829.356 95.415L826.94 96.6566L822.813 98.0823L821.011 95.3752L821.192 92.9988C821.192 92.9988 817.16 95.2239 816.702 95.1866C816.244 95.1494 815.225 94.2669 815.225 94.2669L811.362 94.2762L809.45 96.9966L806.939 93.4402L804.23 96.5724L804.521 92.7591L803.067 91.5262L801.045 93.753L798.601 93.401L795.933 95.8983C795.933 95.8983 795.051 97.418 794.8 96.606C794.55 95.786 793.885 94.4557 793.946 93.6609L794.125 91.3086L790.627 92.5915L790.518 94.0205L789.407 96.386L788.354 94.0062L786.797 96.1739L784.8 96.0117L784.001 94.2907L782.475 94.0052L780.038 95.6247L777.323 96.7774L775.409 97.5832L773.33 96.453L772.187 95.2454L770.445 95.742L768.541 98.463L765.017 100.091L762.096 99.8538L759.954 101.594L757.285 100.101L756.094 99.5277L755.191 101.207L753.324 103.455L747.023 102.943L745.507 104.573L744.124 104.46L743.452 103.129L740.59 104.173L735.138 106.767L733.382 105.51L729.801 103.781L726.732 103.532L726.036 102.514L724.061 104.114L720.696 105.594L717.014 105.295L715.992 106.488L713.079 106.251L710.447 108.275L708.256 110.65L708.595 106.21L706.922 105.913L704.673 107.006L700.558 108.271L698.887 109.889L696.769 107.325L693.991 107.261L692.031 106.617L688.942 106.528C688.942 106.528 687.535 106.737 687.28 106.078C687.019 105.41 686.162 104.549 686.162 104.549L684.192 105.98L684.107 107.096L681.842 108.504L680.776 106.188L679.85 104.19L678.358 105.506L677.467 107.034L676.155 108.042L674.159 107.879L674.243 106.772L672.007 107.705L671.09 107.63L670.286 105.973L669.287 104.931L666.871 106.173L664.959 104.902L663.407 107.006L661.099 106.818L661.354 103.487L659.124 104.428L658.246 105.795L657.189 107.462L656.529 105.97L655.037 107.287L655.121 106.179L653.448 105.882L651.752 107.82L650.524 107.72L650.718 105.183L648.217 107.533L646.761 108.376L646.992 105.357L645.512 106.513L644.054 105.434L643.057 106.314L641.851 107.977L638.006 107.664L637.235 105.679L636.441 105.938L633.324 106.323L632.484 105.14L631.485 104.097L630.175 107.028L628.758 105.314L627.72 106.829L626.182 106.704L624.51 104.33L623.539 102.813L623.442 104.082L621.298 103.908L620.328 102.391L618.765 102.587L616.286 102.701L615.274 101.819L613.845 100.265L612.196 99.6543L610.997 99.0802L609.25 99.738L608.216 101.092L605.808 102.326L604.306 101.727L604.246 102.522L602.992 104.82L600.105 106.176L599.251 107.23L597.713 107.105L597.749 106.623L594.791 106.867L593.419 104.68L591.642 103.574L590.185 106.493L589.112 106.406L589.222 104.977L588.501 104.28L587.166 103.534L586.252 105.374L586.095 107.437L584.494 106.184L582.766 104.452L582.029 104.07L581.956 105.025L579.743 105.645L579.646 106.913L577.184 106.713L575.569 107.697L573.32 108.79L572.516 107.134L572.637 105.544L571.228 107.829L571.022 110.526L568.795 109.384L567.665 112.006L567.604 112.801L566.318 111.42L566.367 110.786L564.358 110.784L563.226 111.484L562.024 108.995L562.206 106.611L561.449 106.388L560.149 107.244L558.55 107.913L556.553 107.751L556.457 109.02L554.424 109.331L553.775 107.687L552.296 108.843L551.238 110.51L551.384 108.607L549.578 107.984L548.303 108.519L545.382 108.281L545.945 111.041L545.236 110.184L543.948 110.879L543.009 113.04L541.35 110.506L541.544 107.97L540.728 106.465L539.574 105.41L538.647 107.411L537.311 108.74L535.182 108.252L535.316 106.502L536.23 104.662L534.547 106.44L533.087 107.444L532.235 106.413L530.455 105.469L529.457 106.349L529.566 104.92L528.101 103.84L525.287 104.25L523.314 103.774L522.303 102.892L520.461 102.743L518.297 102.728L515.978 102.694L514.966 101.82L513.955 100.938L512.451 102.407L511.731 101.71L509.134 103.26L508.892 106.431L507.739 103.308L505.981 104.119L504.249 102.54L504.043 105.238L502.109 106.203L500.171 107.322L498.426 105.904L497.623 104.24L496.032 104.91L495.204 103.566L494.486 100.794L494.34 102.696L490.704 103.839L490.898 101.302L489.576 100.395L488.351 102.21L486.475 100.458L484.959 102.096L484.778 104.472L482.456 102.531L481.049 102.731L479.513 100.53C479.513 100.53 477.885 101.683 477.98 102.482C478.067 103.289 477.71 105.82 477.71 105.82L475.877 101.673L476.89 100.479L474.93 99.8431L475.039 98.4141L473.448 99.0845L472.055 101.047L470.357 101.071L468.108 102.165C468.108 102.165 467.29 102.736 467.024 102.23C466.75 101.731 466.281 99.7785 466.281 99.7785L464.932 101.268L462.827 102.535L461.325 101.929L461.204 103.518L459.821 103.406L458.833 102.211L457.368 101.13L455.374 98.8923L455.216 100.956L453.712 102.433L452.17 106.46L450.127 104.856L448.501 103.924L448.683 101.54L445.976 102.596L444.87 100.915L445.161 97.1012L443.321 98.8743L442.084 96.8513L440.75 96.1047L441.029 92.4519L439.704 93.6287C439.704 93.6287 439.005 94.6867 438.595 94.0152C438.178 93.3431 437.889 91.0821 437.889 91.0821L438.047 89.0189L435.965 89.9645L435.232 89.4284L434.138 87.5865L435.101 85.1041L432.996 86.3709L431.443 88.4823L429.686 87.2249L428.041 86.453L426.455 86.9623L425.528 84.9645L424.182 84.3785L424.581 79.1441L420.98 79.724L419.936 81.3193L417.376 82.3877L415.981 82.4359C415.981 82.4359 414.415 82.7852 413.972 82.4342C413.539 82.0759 412.759 80.0981 412.759 80.0981L412.566 82.635L410.05 83.2303L410.183 81.4882L408.524 82.9448L407.129 82.993L405.635 82.395L405.011 80.4218L403.424 80.939L403.231 83.4759L401.692 83.351L399.96 81.7723C399.96 81.7723 400.344 80.8423 400.057 80.5039C399.778 80.1582 397.891 78.567 397.891 78.567L397.946 77.8524L395.261 78.5148L393.776 79.8321L391.469 79.6446L389.846 80.6275L387.525 82.6764L385.849 84.4548L383.757 83.4932L383.599 85.5564L381.748 87.482L380.339 85.7681L378.91 84.2141L378.143 82.0758L376.926 83.8913L375.24 83.7544L371.61 82.6598L370.31 83.5154L369.541 83.4529L368.323 85.2685L365.921 84.2736L364.97 86.5955L361.841 87.1409L360.458 87.0286L359.459 85.9861L358.585 83.2009L357.282 86.1324L356.404 87.4989L355.211 88.9933L355.078 90.7435L353.77 91.5984L352.447 90.6913L350.944 92.1605L349.363 94.7462L346.718 92.94L346.851 91.1898L345.628 86.9384L345.276 91.5466L343.894 91.4342L342.402 92.7509L341.296 95.0521L339.348 94.2557L338.203 95.1239L336.606 93.7098L335.318 94.4049L335.185 96.155L332.15 97.5079L330.986 98.528L329.663 97.6209L329.603 98.4156L327.376 97.2735L326.053 100.365L323.584 102.402L322.97 102.352L322.335 100.539L323.409 98.5506L321.517 101.111L319.811 101.134L318.62 100.561L316.505 99.9041L317.044 102.985L316.129 104.825L314.599 104.701L313.769 105.433L308.393 104.997L307.229 106.017L305.084 105.842L305.302 102.992L304.315 105.78L303.4 107.628L302.173 107.528L301.61 104.769L300.635 107.403L299.49 108.264L299.708 105.406L297.893 106.858L296.569 108.026L295.645 107.951L295.863 105.093L294.189 108.794L292.132 109.427L291.181 107.75L290.048 108.458L289.041 107.415L288.136 107.188L286.755 108.99L285.24 110.62L283.961 109.24L282.326 110.383L282.266 111.178L280.424 111.028L278.847 113.461L277.697 112.245L276.686 111.363L275.148 111.238L275.244 109.969L272.333 107.657L272.176 109.72L270.373 107.021L269.33 106.451L269.075 109.791L268.073 110.824L267.185 110.276L266.006 109.542L263.578 110.936L262.071 110.498L262.558 109.043L263.471 106.298L260.412 111.963C260.412 111.963 259.114 110.735 259.15 110.261L259.308 108.198L258.139 109.379L256.574 111.651L255.193 109.463L253.35 111.389L252.256 113.53L251.559 112.52L249.91 111.901L249.655 115.241L248.731 115.166L246.625 116.433L246.686 115.638L244.149 114.471L242.732 112.756L242.586 114.667L240.878 116.757L239.832 114.281L238.979 115.327C238.979 115.327 237.904 117.316 237.499 116.483C237.101 115.659 235.561 113.611 235.561 113.611L234.313 113.671L233.323 114.552L233.263 115.347C233.263 115.347 232.864 116.478 232.42 116.256C231.975 116.034 230.211 114.776 230.211 114.776L228.935 115.31L228.753 117.695L227.912 118.58L226.684 118.48L224.913 119.459L223.433 120.615L223.3 122.357L219.61 122.057L218.62 122.938L217.494 121.409L217.385 122.838C217.385 122.838 216.675 124.056 215.906 123.994L213.606 123.807C213.606 123.807 211.355 126.976 211.718 126.214C212.09 125.445 212.972 119.927 212.972 119.927L211.587 117.795L210.35 115.877L210.842 121.506L210.685 123.57L208.894 120.71L208.101 120.969L206.223 121.293L205.08 120.085L205.298 117.227L203.169 118.807L201.629 120.758L200.956 119.427L201.053 118.158L199.115 119.277C199.115 119.277 198.55 118.593 198.455 117.786C198.36 116.978 197.856 115.5 197.856 115.5C197.856 115.5 195.893 116.939 195.655 115.959L195.425 114.987L192.477 117.139L189.712 116.914L186.606 117.146L184.156 116.786L182.664 118.102L180.233 117.582C180.233 117.582 180.845 119.707 180.076 119.645C179.307 119.582 176.735 116.821 176.735 116.821L175.82 114.67L175.965 112.768L174.221 115.34L172.994 115.241L169.808 116.42C169.808 116.42 168.87 114.582 168.918 113.948L169.209 110.143L166.659 113.126L165.466 114.629L163.77 112.569L161.041 111.87L158.794 110.888L157.482 107.906L157.615 106.164L156.111 107.641L155.308 105.976L152.566 105.43L151.591 104.075L150.196 104.123L150.038 106.186L147.792 105.204L148.403 107.33L147.537 108.536L146.048 107.776L144.913 110.56L144.146 108.422L144.279 106.679L142.799 107.835L140.647 107.661L139.852 105.997L138.013 103.771L138.146 102.029L136.402 100.603L136.147 103.943L131.95 104.24L132.107 102.177L129.487 104.04L127.85 103.269L125.771 102.138L123.906 102.302L122.403 101.703L121.142 100.001L119.361 99.0649L118.374 97.8619L118.483 96.4329L117.102 98.2433L115.259 100.17L114.142 100.555L113.406 100.172L112.083 99.2653L110.268 100.717L109.352 100.643L108.126 98.4672L106.658 99.4708L105.734 99.3957L104.895 98.2046L104.23 96.8743L102.284 97.9925L101.057 97.8928C101.057 97.8928 99.0118 98.3648 99.2155 97.7432C99.4193 97.1216 100.203 94.9477 100.203 94.9477L98.1596 97.3424L96.0907 98.1275L96.1997 96.6985L93.781 96.0253L92.0706 96.2095C92.0706 96.2095 90.9886 98.1976 90.8823 97.5428C90.7753 96.8959 90.1715 94.7708 90.1715 94.7708L88.718 97.5284L86.2631 97.329L86.4206 95.2658L84.5043 98.1474L84.6495 96.2447L83.0267 97.2276C83.0267 97.2276 81.513 96.7815 81.3938 96.2952C81.2823 95.8096 80.4792 94.1449 80.4792 94.1449L78.3974 95.0986L78.531 93.3485L75.2708 93.5601L73.591 91.1942L73.7853 88.6492L72.3151 91.7287L72.915 94.0069L70.5808 92.2259L70.7628 89.8416L68.9458 93.3694L67.4661 94.5255L65.4354 92.761L63.3659 93.5542L63.2569 94.9832L60.7917 92.8684L58.8781 93.6662L57.2814 92.2601L56.304 92.9804L53.4436 91.9483L54.3298 94.5729L52.41 93.3022L51.049 94.9526L47.5608 92.1085L46.2481 93.1247L43.9386 95.013L41.8957 93.4092L40.1029 92.6254L38.1648 93.7442L35.9469 88.2891L36.7821 93.6319L35.5229 93.8446L34.5114 92.9627L34.2688 96.1419L32.2621 94.0643L32.153 95.4934L29.7442 96.7355L28.582 95.6798L27.7136 94.9711L26.2925 97.4083L24.8756 95.6937C24.8756 95.6937 22.6992 95.84 22.5799 95.3537C22.4691 94.86 21.976 93.2286 21.976 93.2286L20.6759 98.0748L19.5115 99.0949L17.3427 99.2418L13.9416 97.2045L11.4989 96.8445L9.69613 98.1359L8.26276 100.734L6.20761 99.2903L3.72812 99.412L2.86216 100.618L1.10578 103.351L0.455836 103.161Z" fill="#D0C834"/>
</svg>
