<svg  viewBox="0 0 246 184" fill="none" xmlns="http://www.w3.org/2000/svg">
<g filter="url(#filter0_d_1_468)">
<path fill-rule="evenodd" clip-rule="evenodd" d="M142.271 39.2932L140.075 46.4286L140.124 79.3617H148.309V83.7528H152.701L157.093 79.3617H164.779L179.052 65.0907V39.2932H142.271ZM175.209 62.8952L169.17 68.9329H159.289L153.799 74.4218V68.9329H145.565V43.1353H175.209V62.8952ZM165.328 50.2708H169.17V61.2485H165.328V50.2708ZM155.446 50.2708H159.289V61.2485H155.446V50.2708ZM202.109 101.317V127.115L187.835 136.995H179.052V132.603L172.464 136.995H164.779V132.603L159.838 136.995H145.565L141.173 132.603L140.075 136.995L127.476 136.962L122.508 132.603L121.959 136.995L107.68 136.962L107.137 132.603L103.294 136.962L81.3349 136.995L76.9431 134.799V136.995H64.8657L51.6904 128.761L43.4558 120.528V84.3017H60.474L68.7085 92.5349H106.039V84.3017H136.781V92.5349H144.467V96.926L148.858 92.5349H158.191L166.425 84.3017H183.993V92.5349H193.325L202.109 101.317ZM64.8657 96.3771H57.1801V88.1439H47.2986V118.881L53.3373 125.468H64.8657V115.039H57.1801V106.257H64.8657V96.3771ZM106.039 96.3771H96.1571V115.039H92.3143V96.3771H82.9818V115.039H79.139V96.3771H68.7085V125.468H99.4509L106.039 118.881V96.3771ZM119.214 96.3771H109.881V125.468H119.214V96.3771ZM119.214 88.1439H109.881V92.5349H119.214V88.1439ZM140.624 96.3771H132.938V88.1439H123.057V118.881L129.095 125.468H140.624V115.039H132.938V106.257H140.624V96.3771ZM165.876 96.3771H150.505L144.467 102.415V118.881L151.054 125.468H165.876V115.039H154.897V106.257H165.876V96.3771ZM198.266 102.415L191.678 96.3771H180.15V88.1439H169.719V125.468H180.15V106.257H187.835V125.468H198.266V102.415Z" fill="#874BF7"/>
</g>
<defs>
<filter id="filter0_d_1_468" x="0.455841" y="0.293152" width="244.653" height="183.701" filterUnits="userSpaceOnUse" color-interpolation-filters="sRGB">
<feFlood flood-opacity="0" result="BackgroundImageFix"/>
<feColorMatrix in="SourceAlpha" type="matrix" values="0 0 0 0 0 0 0 0 0 0 0 0 0 0 0 0 0 0 127 0" result="hardAlpha"/>
<feOffset dy="4"/>
<feGaussianBlur stdDeviation="21.5"/>
<feComposite in2="hardAlpha" operator="out"/>
<feColorMatrix type="matrix" values="0 0 0 0 0.529412 0 0 0 0 0.294118 0 0 0 0 0.968627 0 0 0 0.4 0"/>
<feBlend mode="normal" in2="BackgroundImageFix" result="effect1_dropShadow_1_468"/>
<feBlend mode="normal" in="SourceGraphic" in2="effect1_dropShadow_1_468" result="shape"/>
</filter>
</defs>
</svg>
